<svg width="72" height="72" viewBox="0 0 72 72" fill="none" xmlns="http://www.w3.org/2000/svg">
<path d="M17 60.958L15.875 57C15.875 51.125 22.008 47 27 47C33 52 39 52 45 47C49.994 47 55 52.006 55 57V60.958" fill="#92D3F5"/>
<path d="M20.265 49.272C22.305 47.832 24.765 47 27 47C33 52 39 52 45 47C46.896 47 48.792 47.724 50.417 48.892C51.1314 48.4638 51.8359 48.0193 52.53 47.559C52.139 47.949 56.108 39.931 53.375 35.188C52.936 34.334 52.395 32.838 52.062 31.938C50.59 28.668 50.2 27.906 49.875 21.875C49.902 18.182 46.719 14.876 43.038 14.567C42.9064 14.5579 42.7779 14.523 42.6598 14.4641C42.5417 14.4053 42.4365 14.3237 42.35 14.224C42.257 14.124 39.522 11.187 34.687 11.187C28.487 11.187 23.382 15.234 22.08 20.078C21.546 22.09 19.425 22.173 19.585 24.249C19.789 26.269 19.575 31.259 18.871 33.161C18.6226 33.9171 18.2435 34.6238 17.751 35.249C13.979 39.669 18.184 47.695 17.991 47.402C18.741 48.084 19.501 48.696 20.265 49.272Z" fill="#6A462F"/>
<path d="M28.875 60.958C28.88 60.388 28.178 50.548 28.875 45.986C29.142 44.24 30.875 44 31.875 42C34.875 36 33.708 33.667 35.875 28C37.005 25.046 34.31 24.276 32.748 27.4L35.756 23.606C36.96 20.291 33.168 19.166 31.5 21L29.673 24.627C31.243 22.273 28.691 20.478 27 22.252C25.42 23.907 23.376 28.546 21.875 33C21.875 33 21.758 30.806 22.688 28.812C23.252 27.602 22.916 25.863 21 26C20.003 26.071 19.236 28.773 18.46 31.667C17.68 34.574 18.548 38.823 19.18 40.087C20.594 42.916 20.875 42.987 20.875 42.987C20.875 42.987 18.875 51.958 16.875 60.958" fill="#C19A65"/>
<path d="M24.125 31C23.969 39.719 28.531 46 35.937 46C43 46 47 39 47 31C47 26 38.084 17.501 38.084 17.501C34.334 21.084 31.21 30.279 25.334 27.801C25.334 27.801 24.214 26.001 24.125 31Z" fill="#C19A65"/>
<path d="M20.479 24.004C20.516 22.813 20.668 21.469 21.106 19.843C22.585 14.343 28.383 10.877 34.814 10.877C40.214 10.877 42.814 13.877 42.814 13.877C44.8263 14.0573 46.6993 14.9802 48.0684 16.4659C49.4375 17.9516 50.2045 19.8938 50.22 21.914C50.606 29.094 51.244 29.066 53.648 34.736C54.4882 36.6805 54.7799 38.818 54.4913 40.9165C54.2027 43.0151 53.3449 44.9945 52.011 46.64" stroke="black" stroke-width="2" stroke-linecap="round" stroke-linejoin="round"/>
<path d="M41.873 30C41.873 30.5304 41.6623 31.0391 41.2872 31.4142C40.9121 31.7893 40.4034 32 39.873 32C39.3426 32 38.8338 31.7893 38.4588 31.4142C38.0837 31.0391 37.873 30.5304 37.873 30C37.873 29.4696 38.0837 28.9609 38.4588 28.5858C38.8338 28.2107 39.3426 28 39.873 28C40.4034 28 40.9121 28.2107 41.2872 28.5858C41.6623 28.9609 41.873 29.4696 41.873 30Z" fill="black"/>
<path d="M37.438 38H39" stroke="black" stroke-width="2" stroke-linecap="round" stroke-linejoin="round"/>
<path d="M55 60V57C55 52.006 49.994 48 45 48C41.635 50.803 38.161 51.693 34.906 51.693C34.202 51.693 33.465 51.628 32.853 51.553" stroke="black" stroke-width="2" stroke-linecap="round" stroke-linejoin="round"/>
<path d="M32.346 21.542C30.156 24.828 30.447 24.346 27 31" stroke="black" stroke-width="2" stroke-miterlimit="10" stroke-linecap="round" stroke-linejoin="round"/>
<path d="M22 32.602C24.25 28.27 26.11 24.792 27.531 23" stroke="black" stroke-width="2" stroke-miterlimit="10" stroke-linecap="round" stroke-linejoin="round"/>
<path d="M17 60C19 51 21 42.589 21 42.589C21 42.589 20.414 41.829 19 39C17 35 19 30 21 27" stroke="black" stroke-width="2" stroke-miterlimit="10" stroke-linecap="round" stroke-linejoin="round"/>
<path d="M35 23C33.717 25.565 32.174 28.477 31 32" stroke="black" stroke-width="2" stroke-miterlimit="10" stroke-linecap="round" stroke-linejoin="round"/>
<path d="M29 60C29.005 59.43 28.303 50.549 29 45.986C29.267 44.24 31.191 43.697 32 42C33.906 38 34.334 34.194 35.937 28" stroke="black" stroke-width="2" stroke-miterlimit="10" stroke-linecap="round" stroke-linejoin="round"/>
<path d="M37.326 19.71C37.836 19.15 38.232 18.576 39 18C39 18 43 23 46 26C46 26 47 28 47 31C47 40 41.873 45 35.937 45C35.717 45 35.377 44.977 35 44.944" stroke="black" stroke-width="2" stroke-linecap="round" stroke-linejoin="round"/>
</svg>
